<svg width="26" height="26" viewBox="0 0 26 26" fill="none" xmlns="http://www.w3.org/2000/svg">
<path d="M18.6041 16.4167H17.452L17.0437 16.0229C17.955 14.9641 18.6211 13.717 18.9942 12.3707C19.3674 11.0244 19.4383 9.61233 19.202 8.23544C18.5166 4.18127 15.1332 0.943774 11.0499 0.447941C9.61434 0.266329 8.15626 0.415525 6.78723 0.884112C5.4182 1.3527 4.17451 2.12826 3.15132 3.15145C2.12814 4.17463 1.35258 5.41832 0.88399 6.78735C0.415403 8.15638 0.266206 9.61446 0.447819 11.05C0.943652 15.1334 4.18115 18.5167 8.23532 19.2021C9.61221 19.4384 11.0243 19.3675 12.3706 18.9944C13.7169 18.6212 14.964 17.9552 16.0228 17.0438L16.4166 17.4521V18.6042L22.6145 24.8021C23.2124 25.4 24.1895 25.4 24.7874 24.8021C25.3853 24.2042 25.3853 23.2271 24.7874 22.6292L18.6041 16.4167ZM9.85407 16.4167C6.22282 16.4167 3.29157 13.4854 3.29157 9.85419C3.29157 6.22294 6.22282 3.29169 9.85407 3.29169C13.4853 3.29169 16.4166 6.22294 16.4166 9.85419C16.4166 13.4854 13.4853 16.4167 9.85407 16.4167Z" fill="#757575"/>
</svg>
