<svg width="25" height="31" viewBox="0 0 25 31" fill="none" xmlns="http://www.w3.org/2000/svg">
<path d="M3.74992 30.0833C2.94784 30.0833 2.26145 29.7979 1.69075 29.2273C1.12006 28.6566 0.834224 27.9697 0.833252 27.1666V9.66663C0.833252 8.86454 1.11909 8.17815 1.69075 7.60746C2.26242 7.03676 2.94881 6.75093 3.74992 6.74996H6.66659C6.66659 5.14579 7.23777 3.77253 8.38013 2.63017C9.52249 1.48781 10.8958 0.916626 12.4999 0.916626C14.1041 0.916626 15.4773 1.48781 16.6197 2.63017C17.7621 3.77253 18.3333 5.14579 18.3333 6.74996H21.2499C22.052 6.74996 22.7389 7.03579 23.3105 7.60746C23.8822 8.17913 24.1676 8.86552 24.1666 9.66663V27.1666C24.1666 27.9687 23.8812 28.6556 23.3105 29.2273C22.7398 29.7989 22.053 30.0843 21.2499 30.0833H3.74992ZM3.74992 27.1666H21.2499V9.66663H18.3333V12.5833C18.3333 12.9965 18.1933 13.3431 17.9133 13.6231C17.6333 13.9031 17.2871 14.0426 16.8749 14.0416C16.4627 14.0407 16.1166 13.9007 15.8366 13.6216C15.5566 13.3426 15.4166 12.9965 15.4166 12.5833V9.66663H9.58325V12.5833C9.58325 12.9965 9.44325 13.3431 9.16325 13.6231C8.88325 13.9031 8.53714 14.0426 8.12492 14.0416C7.7127 14.0407 7.36659 13.9007 7.08659 13.6216C6.80659 13.3426 6.66659 12.9965 6.66659 12.5833V9.66663H3.74992V27.1666ZM9.58325 6.74996H15.4166C15.4166 5.94788 15.1312 5.26149 14.5605 4.69079C13.9899 4.1201 13.303 3.83426 12.4999 3.83329C11.6969 3.83232 11.0105 4.11815 10.4408 4.69079C9.87103 5.26343 9.5852 5.94982 9.58325 6.74996Z" fill="#757575"/>
</svg>
